<svg width="40" height="37.198" version="1.1" viewBox="0 0 40 37.198" xmlns="http://www.w3.org/2000/svg">
 <path d="m37.618 20.238c-1.1117 0-2.076 0.77141-2.3369 1.8378h-3.3239v-2.6999h-2.6999v-1.6222h2.6999v-6.4889h-2.6999v-1.6336h2.6999v-2.6999h3.3239c0.1021 0.44242 0.32898 0.82813 0.63528 1.1344 0.43108 0.43109 1.0323 0.70335 1.6903 0.70335s1.2592-0.27226 1.6903-0.70335c0.43108-0.43108 0.70334-1.0323 0.70334-1.6903 0-1.3273-1.0777-2.3936-2.3936-2.3936-1.1117 0-2.076 0.77142-2.3369 1.8378h-3.3239v-2.6999h-2.6999v-3.1197h-18.491v3.1197h-2.6999v6.5116h2.6999v1.6222h-2.6999v2.6999h-3.3239c-0.26092-1.0777-1.2252-1.8378-2.3369-1.8378-1.3159-0.01134-2.3936 1.0664-2.3936 2.3936 0 0.65797 0.27226 1.2592 0.70335 1.6903 0.43108 0.43108 1.0323 0.70334 1.6903 0.70334s1.2592-0.27226 1.6903-0.70334c0.3063-0.3063 0.53318-0.70335 0.63528-1.1344h3.3352v2.6999h2.6999v1.6222h-2.6999v6.4889h2.6999v1.6222h-2.6999v2.6999h-3.3239c-0.26092-1.0777-1.2252-1.8378-2.3369-1.8378-1.3159 0.01134-2.3936 1.089-2.3936 2.405 0 1.3273 1.0777 2.3936 2.3936 2.3936 1.1117 0 2.076-0.77141 2.3369-1.8378h3.3239v2.6999h2.6999v3.1764h18.503v-3.1764h2.6659v-6.5116h-2.6659v-1.6222h2.6999v-2.6886h3.3239c0.1021 0.44242 0.32898 0.82813 0.63528 1.1344 0.43108 0.43109 1.0323 0.70335 1.6903 0.70335s1.2592-0.27226 1.6903-0.70335c0.43108-0.43108 0.70334-1.0323 0.70334-1.6903 0.01135-1.3273-1.0664-2.405-2.3823-2.405m-0.90754-14.77c0.22688-0.22688 0.55587-0.37436 0.90754-0.37436 0.35167 0 0.68066 0.14748 0.90754 0.37436 0.22688 0.22689 0.37436 0.55587 0.37436 0.90755 0 0.35167-0.14748 0.68065-0.37436 0.90754-0.22689 0.22688-0.55587 0.37436-0.90754 0.37436-0.35167 0-0.68066-0.14748-0.90754-0.37436-0.22689-0.22689-0.37436-0.55587-0.37436-0.90754 0-0.35168 0.14748-0.68066 0.37436-0.90755m-33.409 9.9489c-0.23823 0.22689-0.55587 0.37436-0.90754 0.37436s-0.68066-0.14747-0.90754-0.37436c-0.22689-0.22688-0.37436-0.55587-0.37436-0.90754 0-0.71469 0.56721-1.2819 1.2819-1.2819s1.2819 0.56721 1.2819 1.2819c0 0.35167-0.13613 0.66931-0.37436 0.90754m0 16.256c-0.23823 0.22688-0.55587 0.37436-0.90754 0.37436s-0.68066-0.14748-0.90754-0.37436c-0.22689-0.22689-0.37436-0.55587-0.37436-0.90754 0-0.35168 0.14748-0.68066 0.37436-0.90755 0.22689-0.22688 0.55587-0.37436 0.90754-0.37436s0.68066 0.14748 0.90754 0.37436c0.22689 0.22689 0.37436 0.55587 0.37436 0.90755 0 0.36301-0.13613 0.68065-0.37436 0.90754m27.544-23.165h-4.2768v-4.2654h4.2768zm-21.668 3.857h4.2768v4.2768h-4.2768zm0 8.1338h4.2768v4.2768h-4.2768zm0 8.1338h4.2768v4.2768h-4.2768zm18.968 7.1582h-16.279v-2.0533h2.6999v-6.5116h-2.6999v-1.6222h2.6999v-6.5116h-2.6999v-1.6222h2.6999v-6.5003h-2.6999v-1.6336h2.6999v-6.5116h-2.6999v-2.0079h16.279v2.0079h-2.6886v6.5116h2.6999v1.6222h-2.6886v6.5003h2.6999v1.6222h-2.6886v6.5116h2.6999v1.6222h-2.6886v6.5116h2.6999v2.0647zm2.6999-11.015h-4.2768v-4.2768h4.2768zm7.6801-1.2252c-0.22689 0.22688-0.55587 0.37436-0.90754 0.37436-0.35167 0-0.68066-0.14748-0.90754-0.37436-0.22689-0.22689-0.37436-0.55587-0.37436-0.90754 0-0.35168 0.14748-0.68066 0.37436-0.90755 0.22688-0.22688 0.55587-0.37436 0.90754-0.37436 0.35167 0 0.68066 0.14748 0.90754 0.37436 0.22688 0.22689 0.37436 0.55587 0.37436 0.90755 0 0.35167-0.14748 0.66931-0.37436 0.90754" style="stroke-width:.11344"/>
</svg>
