<svg width="16" height="14.879" version="1.1" viewBox="0 0 16 14.879" xmlns="http://www.w3.org/2000/svg">
 <style type="text/css">.st0{fill:#2B2E7D;}
	.st1{fill:#10CFC9;}
	.st2{fill:#1226AA;}
	.st3{fill:#51C2BE;}
	.st4{fill:#FFFFFF;}</style>
 <g transform="scale(.045377)">
  <path class="st0" d="m331.6 178.4c-9.8 0-18.3 6.8-20.6 16.2h-29.3v-23.8h-23.8v-14.3h23.8v-57.2h-23.8v-14.4h23.8v-23.8h29.3c0.9 3.9 2.9 7.3 5.6 10 3.8 3.8 9.1 6.2 14.9 6.2s11.1-2.4 14.9-6.2 6.2-9.1 6.2-14.9c0-11.6-9.5-21.1-21.1-21.1-9.8 0-18.3 6.8-20.6 16.2h-29.3v-23.8h-23.8v-27.5h-163v27.5h-23.8v57.4h23.8v14.3h-23.8v23.8h-29.3c-2.3-9.5-10.8-16.2-20.6-16.2-11.6-0.1-21.1 9.4-21.1 21.1 0 5.8 2.4 11.1 6.2 14.9s9.1 6.2 14.9 6.2 11.1-2.4 14.9-6.2c2.7-2.7 4.7-6.2 5.6-10h29.4v23.8h23.8v14.3h-23.8v57.2h23.8v14.3h-23.8v23.8h-29.3c-2.3-9.5-10.8-16.2-20.6-16.2-11.6 0.1-21.1 9.6-21.1 21.2 0 11.7 9.5 21.1 21.1 21.1 9.8 0 18.3-6.8 20.6-16.2h29.3v23.8h23.8v28h163.1v-28h23.5v-57.4h-23.5v-14.3h23.8v-23.7h29.3c0.9 3.9 2.9 7.3 5.6 10 3.8 3.8 9.1 6.2 14.9 6.2s11.1-2.4 14.9-6.2 6.2-9.1 6.2-14.9c0.1-11.7-9.4-21.2-21-21.2" style="fill:#2b2e7d"/>
  <path class="st3" d="m331.6 67.5c3.1 0 6-1.3 8-3.3 2-2.1 3.3-4.9 3.3-8s-1.3-6-3.3-8-4.9-3.3-8-3.3-6 1.3-8 3.3-3.3 4.9-3.3 8 1.3 6 3.3 8 4.9 3.3 8 3.3" style="fill:#51c2be"/>
  <path class="st3" d="m331.6 210.9c3.1 0 6-1.3 8-3.3 2-2.1 3.3-4.9 3.3-8s-1.3-6-3.3-8-4.9-3.3-8-3.3-6 1.3-8 3.3-3.3 4.9-3.3 8 1.3 6 3.3 8 4.9 3.3 8 3.3" style="fill:#51c2be"/>
  <rect class="st4" x="234.2" y="37.4" width="37.7" height="37.7" style="fill:#fff"/>
  <rect class="st4" x="80.9" y="109" width="37.7" height="37.7" style="fill:#fff"/>
  <rect class="st0" x="80.9" y="180.7" width="37.7" height="37.7" style="fill:#2b2e7d"/>
  <rect class="st4" x="80.9" y="252.4" width="37.7" height="37.7" style="fill:#fff"/>
  <rect class="st4" x="234.2" y="180.7" width="37.7" height="37.7" style="fill:#fff"/>
  <polygon class="st3" transform="translate(0,-7.5)" points="248.1 89.8 224.3 89.8 224.3 32.4 229.3 32.4 248.1 32.4 248.1 14.7 104.6 14.7 104.6 32.4 128.4 32.4 128.4 89.8 104.6 89.8 104.6 104.1 128.4 104.1 128.4 161.5 104.6 161.5 104.6 175.8 128.4 175.8 128.4 233.2 104.6 233.2 104.6 247.5 128.4 247.5 128.4 304.8 104.6 304.8 104.6 323 248.1 323 248.1 304.8 224.3 304.8 224.3 247.5 229.3 247.5 248.1 247.5 248.1 233.2 224.3 233.2 224.3 175.8 229.3 175.8 248.1 175.8 248.1 161.5 224.3 161.5 224.3 104.1 229.3 104.1 248.1 104.1" style="fill:#51c2be"/>
  <path class="st1" d="m323.6 48.2c2-2 4.9-3.3 8-3.3s6 1.3 8 3.3 3.3 4.9 3.3 8-1.3 5.9-3.3 8c-2 2-4.9 3.3-8 3.3s-6-1.3-8-3.3-3.3-4.9-3.3-8 1.2-6 3.3-8" style="fill:#10cfc9"/>
  <rect class="st4" x="234.2" y="37.4" width="37.7" height="37.7" style="fill:#fff"/>
  <rect class="st4" x="80.9" y="109" width="37.7" height="37.7" style="fill:#fff"/>
  <rect class="st0" x="80.9" y="180.7" width="37.7" height="37.7" style="fill:#2b2e7d"/>
  <rect class="st4" x="80.9" y="252.4" width="37.7" height="37.7" style="fill:#fff"/>
  <polygon class="st1" transform="translate(0,-7.5)" points="104.6 104.1 104.6 89.8 128.4 89.8 128.4 32.4 104.6 32.4 104.6 14.7 248.1 14.7 248.1 32.4 229.3 32.4 224.3 32.4 224.3 89.8 248.1 89.8 248.1 104.1 229.3 104.1 224.3 104.1 224.3 161.5 248.1 161.5 248.1 175.8 229.3 175.8 224.3 175.8 224.3 233.2 248.1 233.2 248.1 247.5 229.3 247.5 224.3 247.5 224.3 304.8 248.1 304.8 248.1 323 104.6 323 104.6 304.8 128.4 304.8 128.4 247.5 104.6 247.5 104.6 233.2 128.4 233.2 128.4 175.8 104.6 175.8 104.6 161.5 128.4 161.5 128.4 104.1" style="fill:#10cfc9"/>
  <rect class="st4" x="234.2" y="180.7" width="37.7" height="37.7" style="fill:#fff"/>
  <path class="st1" d="m339.6 207.6c-2 2-4.9 3.3-8 3.3s-6-1.3-8-3.3-3.3-4.9-3.3-8 1.3-6 3.3-8 4.9-3.3 8-3.3 6 1.3 8 3.3 3.3 4.9 3.3 8-1.3 5.9-3.3 8" style="fill:#10cfc9"/>
 </g>
</svg>
